<svg width="340" height="370" viewBox="0 0 340 370" fill="none" xmlns="http://www.w3.org/2000/svg">
<path d="M157.188 10.5913C154.099 20.4759 152.554 21.7115 142.979 21.7115C133.094 21.7115 132.476 22.3293 132.476 32.2139C132.476 41.4807 134.021 43.9518 144.832 49.8208C151.628 53.8364 157.188 59.0876 157.188 61.5587C157.188 64.0299 150.701 72.9878 142.67 81.019C129.696 93.9926 128.152 97.3904 126.916 112.835C126.298 122.102 125.063 129.824 124.136 129.824C123.518 129.824 118.885 127.044 114.252 123.337C94.1735 108.511 57.7241 106.348 33.6304 119.013C21.2746 125.5 6.75663 143.416 3.0499 156.698C-4.05465 182.027 0.26986 196.854 26.5258 237.01C45.9861 266.355 51.2373 280.564 54.0173 312.998C57.1063 346.976 63.5931 354.699 96.6447 363.348C134.639 373.541 223.291 371.379 256.343 359.95C278.583 351.919 282.908 345.741 285.379 318.558C288.777 283.962 295.881 264.193 317.195 232.068C337.582 201.488 340.98 190.676 338.817 166.583C334.184 119.94 280.436 96.1548 234.411 119.94L216.495 129.206L214.333 112.217C212.48 97.3904 210.626 93.6837 198.58 82.2546C181.899 66.1922 181.282 58.4698 195.8 49.5119C204.757 43.9518 206.611 40.8629 206.611 32.2139C206.611 22.3293 205.993 21.7115 196.108 21.7115C187.151 21.7115 185.606 20.4759 183.135 11.518C180.664 3.48676 178.501 1.32451 170.47 0.706718C161.821 -0.219963 160.586 1.01561 157.188 10.5913ZM96.9536 136.002C127.225 150.52 148.539 179.247 152.554 210.137C155.952 234.848 156.879 237.319 164.91 239.173C177.575 242.262 184.988 236.393 184.988 222.801C184.988 178.629 229.778 129.824 269.934 129.824C299.588 129.824 317.813 146.196 317.813 172.76C317.813 195.31 292.792 237.319 269.934 253.073C260.976 258.942 255.416 260.177 237.191 260.177C225.144 259.868 205.066 258.324 192.402 256.471C176.339 254 163.057 254 146.994 256.162C123.827 259.56 104.367 260.795 86.1423 259.868C77.1844 259.56 72.2421 256.162 56.7974 240.099C24.6725 206.43 13.5523 172.143 27.1436 149.593C38.8816 130.442 71.9332 123.955 96.9536 136.002ZM240.28 310.218C246.149 312.072 251.4 315.16 252.018 317.323C254.798 325.354 242.134 326.898 205.684 323.809C180.973 321.647 158.114 321.647 133.403 323.809C98.1891 326.898 86.1423 325.354 86.1423 317.94C86.1423 312.38 102.823 308.365 134.021 306.203C171.088 303.422 225.762 305.585 240.28 310.218Z" fill="black"/>
<path d="M56.1796 145.578C43.8239 149.284 33.6304 161.949 33.6304 173.996C33.6304 188.205 45.3683 209.828 62.9753 227.435C76.8755 241.335 80.2733 243.188 95.4091 245.041C114.252 247.204 134.947 243.497 139.272 237.319C145.759 227.743 135.565 190.367 121.665 171.834C104.676 150.211 78.1111 139.4 56.1796 145.578Z" fill="black"/>
<path d="M256.961 145.27C228.851 151.756 205.993 180.175 200.124 215.697C196.109 240.718 201.051 244.733 232.867 244.733C255.725 244.733 256.652 244.425 270.861 232.687C290.012 216.624 305.457 190.986 305.457 175.232C305.457 166.274 303.295 161.023 296.499 154.228C291.557 149.285 284.761 145.27 281.363 145.27C277.965 145.27 273.332 144.652 270.861 144.034C268.699 143.416 262.212 144.034 256.961 145.27Z" fill="black"/>
</svg>
