<svg width="281" height="328" viewBox="0 0 281 328" fill="none" xmlns="http://www.w3.org/2000/svg">
<path d="M20.8103 8.66309C13.4072 16.398 12.4819 19.4919 12.4819 40.5309V63.7355L35.6164 86.6308L58.7509 109.526V163.98V218.124L29.4472 247.517L0.143434 276.909V297.329C0.143434 330.125 -10.0358 327.959 141.11 327.959C291.33 327.959 280.843 330.435 280.843 296.71V276.909L253.081 249.064L225.32 221.218V165.527V109.526L246.912 88.1778L268.504 66.8295V40.2215C268.504 16.398 267.887 12.6852 261.41 6.8067C255.549 1.23758 250.613 0 232.723 0C209.588 0 203.727 2.78459 203.727 14.5416C203.727 20.7295 202.185 21.6577 192.931 21.6577C183.677 21.6577 182.135 20.7295 182.135 14.5416C182.135 1.8564 176.891 0 142.035 0C107.179 0 101.935 1.8564 101.935 14.5416C101.935 20.7295 100.393 21.6577 91.1393 21.6577C82.8109 21.6577 80.3432 20.4201 80.3432 16.0886C80.3432 4.95035 70.4724 0 49.1887 0C31.2979 0 28.2133 0.928194 20.8103 8.66309ZM203.727 116.023V126.852L141.418 126.233L78.8009 125.305L77.8755 115.095L76.9501 105.195H140.185H203.727V116.023ZM203.727 216.577V225.859H140.493H77.2586V216.577V207.295H140.493H203.727V216.577Z" fill="black"/>
</svg>
