<svg width="364" height="388" viewBox="0 0 364 388" fill="none" xmlns="http://www.w3.org/2000/svg">
<path d="M158.073 5.86899C143.254 15.1358 139.549 36.4495 149.428 55.292L154.059 64.2499L139.858 71.0456C132.139 74.7523 115.776 87.7258 103.118 100.082C83.9762 118.924 79.9627 124.484 75.3316 139.929C67.6132 166.494 73.4792 189.661 96.3257 221.786C105.588 234.759 105.897 235.377 101.883 249.586C92.3121 283.256 95.0908 291.905 117.628 295.302C124.112 296.538 129.36 298.391 129.36 299.318C129.36 304.26 99.1043 308.894 68.8482 308.894C31.1824 308.894 23.464 311.674 9.57082 330.825L0 343.799L12.0407 361.715C18.8329 371.599 27.4775 381.793 30.8736 384.264C36.7396 388.279 38.2833 388.279 44.7667 383.955C49.0891 381.175 70.0831 376.85 93.2383 373.761C142.945 366.966 155.912 363.568 170.731 353.683L182.463 345.652L192.343 352.139C209.941 362.95 228.465 367.892 272.305 373.761C301.635 377.468 316.763 380.866 320.777 384.573C325.099 388.588 327.878 388.897 332.818 386.426C338.684 383.028 364 349.05 364 344.108C364 339.474 347.328 320.323 338.066 314.763C330.348 310.129 322.629 308.894 297.004 308.894C265.822 308.894 234.331 303.951 234.331 299.009C234.331 297.774 237.727 296.538 242.049 296.538C252.855 296.538 267.366 288.507 269.527 281.711C270.453 278.931 268.6 266.884 265.204 255.146L259.338 234.141L271.379 216.534C301.327 172.363 299.474 137.149 264.896 102.244C251.929 89.2703 226.304 71.0456 215.189 67.0299C210.558 65.4855 210.867 64.2499 216.424 52.8208C224.451 36.7584 221.981 21.0048 209.632 8.64904C202.222 1.23559 198.517 1.30893e-05 184.316 1.30893e-05C173.51 1.30893e-05 164.556 2.16227 158.073 5.86899ZM192.343 26.5649C198.209 32.125 198.517 35.2139 194.195 43.554C188.02 54.9831 169.496 49.1141 169.496 35.5228C169.496 22.5493 183.081 17.2981 192.343 26.5649ZM191.725 121.086C190.799 132.515 190.799 132.824 201.605 132.824C212.102 132.824 212.719 133.442 212.719 143.327C212.719 153.211 211.793 154.138 202.84 155.065C193.269 155.991 192.651 156.918 192.651 167.729C192.651 178.541 192.034 179.158 182.772 179.158C172.892 179.158 172.584 178.541 172.584 166.803C172.584 155.374 171.966 154.447 163.63 154.447C156.221 154.447 154.677 152.902 153.442 145.18C151.898 134.06 152.516 132.824 163.939 132.824C171.966 132.824 172.584 131.898 172.584 120.16C172.584 108.113 172.892 107.804 182.772 108.731C192.343 109.657 192.651 110.275 191.725 121.086ZM236.492 214.99C237.418 217.77 236.492 221.168 234.022 222.712C229.082 226.11 130.904 225.184 127.817 221.786C126.582 220.55 126.273 217.461 127.199 214.681C130.287 207.577 233.713 207.577 236.492 214.99ZM232.478 245.879C238.962 248.351 238.653 255.146 232.17 257.926C229.082 259.162 209.014 260.706 187.712 261.633C139.24 263.795 114.232 257.308 131.83 247.424C137.388 244.026 224.451 242.79 232.478 245.879Z" fill="black"/>
</svg>
