<svg width="338" height="331" viewBox="0 0 338 331" fill="none" xmlns="http://www.w3.org/2000/svg">
<path d="M140.028 12.0645L130.128 24.129L113.42 16.3953C104.138 12.0645 89.9059 8.35235 82.171 8.35235L67.9388 7.73366L68.5576 29.3879C69.1764 55.3729 65.4636 67.4374 34.8333 132.709C22.4574 159.004 9.15335 189.629 5.44058 201.384C-1.36615 221.492 -1.67554 222.42 3.8936 231.081C11.6285 244.074 23.0762 252.117 39.7836 256.757C49.6843 259.541 55.5629 259.85 59.2757 257.685C62.9884 255.21 64.8448 256.138 67.32 261.088C69.1764 264.8 73.5079 267.893 77.2207 268.512C82.4804 269.44 87.1214 264.8 99.4972 246.549C107.851 233.865 119.299 219.945 124.868 215.305C136.006 205.715 158.592 193.65 160.758 195.816C163.852 198.909 149.001 226.75 131.365 251.498C121.155 265.419 110.945 280.886 108.16 286.145C104.448 293.569 96.7127 323.266 96.7127 329.453C96.7127 330.381 150.238 331 215.521 331H334.02L336.186 316.77C342.993 265.109 329.998 181.895 308.031 137.659C280.804 83.5234 241.201 48.5673 200.67 43.6178C186.128 41.7617 185.2 41.143 181.178 28.7692C176.846 15.7766 161.995 1.34706e-05 153.951 1.34706e-05C151.476 1.34706e-05 145.288 5.56824 140.028 12.0645ZM204.383 72.6963C236.56 82.286 279.876 133.637 295.345 180.967C304.627 209.118 310.197 244.383 310.197 275.008C310.197 297.281 305.556 307.799 297.202 304.706C290.705 302.231 288.539 293.569 288.539 267.275C288.539 238.196 281.113 195.816 271.831 173.234C255.124 132.4 221.09 95.5879 189.532 84.4514C174.681 79.1925 170.04 73.315 178.084 70.2215C184.272 67.4374 187.675 67.7467 204.383 72.6963ZM114.348 98.0626C115.276 100.228 110.326 107.652 103.829 114.458C94.8563 124.357 89.5965 127.45 81.2428 127.76C65.4636 128.688 64.8448 117.861 79.3864 103.322C88.6684 94.0411 92.0717 92.4944 101.663 93.4224C108.16 94.0411 113.73 95.8972 114.348 98.0626ZM34.8333 209.736C34.8333 217.47 28.336 225.204 20.9104 226.441C15.9601 227.06 15.0319 225.822 15.6507 219.636C16.8883 206.952 34.8333 197.672 34.8333 209.736Z" fill="black"/>
</svg>
