<svg width="388" height="360" viewBox="0 0 388 360" fill="none" xmlns="http://www.w3.org/2000/svg">
<path d="M174.78 5.78253C163.987 14.1207 162.137 26.7823 168.613 47.4733C175.705 70.0173 175.397 100.899 168.304 137.649L163.062 165.443L155.97 150.002C141.168 117.267 133.459 88.8553 134.076 69.7084C134.384 59.5173 134.693 47.4733 134.693 42.841C135.309 22.7677 112.49 8.56191 92.7552 16.9001C79.8039 22.15 75.1784 28.6353 73.3282 42.841C72.0948 53.0321 73.0199 56.4291 81.3457 65.6938C95.2221 81.4436 97.0723 89.473 97.0723 129.311L96.7639 165.443L84.7377 152.164C65.6191 130.855 58.8351 114.179 61.302 93.4876C62.8439 78.9731 62.2271 74.0319 56.9849 65.6938C46.5006 48.7086 30.1573 45.3116 13.814 56.4291C-5.3046 69.3996 -4.37951 95.0317 15.3558 109.855C23.99 116.649 25.5318 120.046 27.382 136.105C28.6154 145.987 33.5493 169.766 38.1747 188.296C45.8838 218.251 48.9675 224.736 62.5355 241.722C70.8613 252.53 80.1122 265.81 82.8875 271.368C87.8213 280.942 87.8213 282.177 80.1122 303.177C66.8526 340.235 69.3195 344.559 107.865 354.441C137.468 361.853 247.862 361.853 281.782 354.441C318.169 346.412 322.795 337.456 307.993 302.251C303.368 291.133 300.901 280.633 301.826 276.31C302.751 272.604 312.31 258.707 322.486 245.427C340.68 222.575 341.605 220.413 350.239 184.899C354.865 164.516 359.798 140.737 360.724 131.781C362.574 118.502 364.424 115.105 372.75 109.855C394.027 95.9582 392.793 64.4585 370.591 53.9586C357.023 47.4733 345.922 49.9439 333.896 62.2967C324.953 71.2525 324.645 72.179 326.803 91.0171C328.654 108.311 327.729 112.635 321.253 125.605C316.936 133.943 308.61 146.296 302.443 153.09L291.65 165.443L290.725 146.914C288.566 99.0464 292.575 79.5907 306.143 66.929C329.27 46.2381 303.985 5.78253 274.382 15.6648C255.88 21.8412 252.796 28.3264 253.721 59.2085C254.338 82.9877 253.413 90.3994 245.395 114.487C240.153 129.928 233.369 147.531 230.286 153.708L224.427 164.825L219.493 137.031C213.017 102.135 212.709 66.929 218.876 49.6351C225.66 30.4882 224.735 17.8265 215.792 8.25309C206.85 -1.62917 186.189 -2.86446 174.78 5.78253ZM204.383 19.3706C209.625 24.6206 209.008 35.7381 203.458 40.3705C191.74 49.9439 173.855 32.0323 183.414 20.2971C188.04 14.7383 199.141 14.1207 204.383 19.3706ZM116.191 38.5175C123.283 49.3263 116.191 59.5173 102.931 58.2821C93.9886 57.3556 92.4468 56.1203 91.5217 48.091C90.5966 42.2234 92.1384 37.8999 95.8388 35.1205C101.698 30.797 112.49 32.6499 116.191 38.5175ZM292.575 35.1205C296.275 37.8999 297.817 42.2234 296.892 48.091C296.275 55.5027 294.425 57.6644 287.333 58.2821C270.681 60.135 263.589 45.0028 276.54 36.047C284.866 30.1794 285.791 30.1794 292.575 35.1205ZM40.95 71.8702C46.1922 77.1201 45.5755 88.2377 40.0249 92.87C33.8576 98.1199 20.9063 94.4141 18.4394 86.6936C14.1223 73.1055 31.0824 61.9879 40.95 71.8702ZM366.582 73.1055C372.441 78.6642 372.75 81.7524 368.433 90.0906C362.265 101.517 343.763 95.6494 343.763 82.0613C343.763 69.0908 357.332 63.8408 366.582 73.1055ZM280.549 222.884C289.183 225.972 293.192 229.369 293.809 233.692L294.734 240.486L194.515 240.178C98.9224 239.869 93.9886 239.56 93.9886 234.31C93.9886 221.339 127.6 216.398 206.541 217.634C248.171 218.56 272.223 220.104 280.549 222.884ZM267.906 290.206C274.382 291.751 282.091 295.456 284.866 297.927C288.875 302.251 288.875 303.486 285.174 307.192C281.166 310.897 272.84 311.206 235.836 309.353C211.167 307.809 172.621 307.809 149.803 309.353C109.407 312.133 100.156 310.589 100.156 302.559C100.156 297.618 117.733 290.824 137.468 287.736C160.904 284.03 250.638 285.883 267.906 290.206Z" fill="black"/>
</svg>
