<svg width="243" height="330" viewBox="0 0 243 330" fill="none" xmlns="http://www.w3.org/2000/svg">
<path d="M96.1489 6.22651C75.126 17.0292 68.0153 37.4001 76.3626 61.1661C79.145 68.5737 81 75.0554 80.6908 75.364C80.0725 75.6727 74.5076 78.7592 68.3244 82.7716C47.6107 95.1176 38.3359 127.834 48.5382 151.909C50.7023 157.465 57.1947 165.798 62.7595 170.737C70.7977 177.527 72.0343 179.688 68.6336 181.848C53.1756 190.49 30.916 210.244 22.8779 221.973C8.34733 243.578 3.40076 260.554 1.85496 296.666L0 330H121.5H243L241.145 296.666C239.908 274.134 237.435 258.085 232.798 246.047C225.069 225.368 204.046 200.676 184.569 189.256C177.149 184.935 170.966 180.614 170.966 179.688C170.966 178.762 174.676 175.367 179.004 171.663C188.588 164.255 198.481 143.884 198.79 131.23C198.79 114.871 191.679 98.5128 180.24 88.0187C173.748 82.463 166.947 77.2159 164.782 76.29C161.382 75.364 161.382 72.8948 164.164 64.5613C166.328 59.0056 167.874 48.5115 167.874 41.1039C167.874 9.00435 127.992 -10.7492 96.1489 6.22651Z" fill="white"/>
</svg>
